HIERARCHY
ROOT Hips
{
 OFFSET 0.000000 0.000000 0.000000
 CHANNELS 6 Xposition Yposition Zposition Yrotation Xrotation Zrotation
 JOINT Chest
 {
  OFFSET 0.000000 9.588913 -0.003946
  CHANNELS 3 Yrotation Xrotation Zrotation
  JOINT Chest2
  {
   OFFSET 0.000000 9.541882 0.008053
   CHANNELS 3 Yrotation Xrotation Zrotation
   JOINT Chest3
   {
    OFFSET 0.000000 9.501360 0.000000
    CHANNELS 3 Yrotation Xrotation Zrotation
    JOINT Chest4
    {
     OFFSET 0.000000 9.491660 0.000000
     CHANNELS 3 Yrotation Xrotation Zrotation
     JOINT Neck
     {
      OFFSET 0.000000 14.331917 0.000000
      CHANNELS 3 Yrotation Xrotation Zrotation
      JOINT Head
      {
       OFFSET 0.000000 8.884799 0.017034
       CHANNELS 3 Yrotation Xrotation Zrotation
       End Site
       {
        OFFSET 0.000000 16.896195 0.008993
       }
      }
     }
     JOINT RightCollar
     {
      OFFSET -2.923010 9.499495 0.000000
      CHANNELS 3 Yrotation Xrotation Zrotation
      JOINT RightShoulder
      {
       OFFSET -13.795216 0.000000 0.000000
       CHANNELS 3 Yrotation Xrotation Zrotation
       JOINT RightElbow
       {
        OFFSET -30.272209 0.000000 0.000000
        CHANNELS 3 Yrotation Xrotation Zrotation
        JOINT RightWrist
        {
         OFFSET -24.478199 0.000000 0.000000
         CHANNELS 3 Yrotation Xrotation Zrotation
         End Site
         {
          OFFSET -18.090752 0.000000 0.000000
         }
        }
       }
      }
     }
     JOINT LeftCollar
     {
      OFFSET 2.923010 9.499495 0.000000
      CHANNELS 3 Yrotation Xrotation Zrotation
      JOINT LeftShoulder
      {
       OFFSET 13.795216 0.000000 0.000000
       CHANNELS 3 Yrotation Xrotation Zrotation
       JOINT LeftElbow
       {
        OFFSET 30.272209 0.000000 0.000000
        CHANNELS 3 Yrotation Xrotation Zrotation
        JOINT LeftWrist
        {
         OFFSET 24.478199 0.000000 0.000000
         CHANNELS 3 Yrotation Xrotation Zrotation
         End Site
         {
          OFFSET 18.090752 0.000000 0.000000
         }
        }
       }
      }
     }
    }
   }
  }
 }
 JOINT RightHip
 {
  OFFSET -7.826875 0.019532 0.001973
  CHANNELS 3 Yrotation Xrotation Zrotation
  JOINT RightKnee
  {
   OFFSET 0.000000 -40.546152 -0.001885
   CHANNELS 3 Yrotation Xrotation Zrotation
   JOINT RightAnkle
   {
    OFFSET 0.000000 -39.417092 -0.003189
    CHANNELS 3 Yrotation Xrotation Zrotation
    JOINT RightToe
    {
     OFFSET 0.000000 -7.579396 17.243563
     CHANNELS 3 Yrotation Xrotation Zrotation
     End Site
     {
      OFFSET 0.000000 -1.500329 6.694466
     }
    }
   }
  }
 }
 JOINT LeftHip
 {
  OFFSET 7.826875 0.019532 0.001973
  CHANNELS 3 Yrotation Xrotation Zrotation
  JOINT LeftKnee
  {
   OFFSET 0.000000 -40.546152 -0.001885
   CHANNELS 3 Yrotation Xrotation Zrotation
   JOINT LeftAnkle
   {
    OFFSET 0.000000 -39.417092 -0.003189
    CHANNELS 3 Yrotation Xrotation Zrotation
    JOINT LeftToe
    {
     OFFSET 0.000000 -7.579396 17.243563
     CHANNELS 3 Yrotation Xrotation Zrotation
     End Site
     {
      OFFSET 0.000000 -1.500329 6.694466
     }
    }
   }
  }
 }
}
MOTION
Frames: 17
Frame Time: 0.008333
253.314918 81.535077 -249.848902 119.990363 -22.432916 1.834333 2.194485 7.687534 2.659507 1.292822 4.540867 1.509419 1.636038 5.670539 1.904309 1.292815 4.540862 1.509415 -5.394840 23.943633 -1.729476 -5.482651 0.251794 -0.649552 0.510832 3.901453 -3.271917 -15.439820 0.651589 79.576183 36.280104 1.011709 13.042598 8.073320 -3.928191 -4.300499 4.900285 5.430581 2.994694 18.520202 12.969142 -79.005975 -14.827038 9.625702 -8.555343 -6.636906 5.213924 -0.370377 -7.300594 3.249329 -8.285192 22.498053 63.740466 10.411557 -3.590004 -20.208615 9.084735 0.898288 -25.812347 -2.775304 7.731370 -21.014108 0.678872 -1.045789 19.413633 2.136930 6.906298 -7.112781 -8.197910 -0.026289 -0.208923 0.836725
254.262083 81.521401 -250.869383 119.696245 -22.505238 1.952505 2.207386 7.766562 2.415048 1.306890 4.512633 1.509677 1.653508 5.635191 1.904686 1.306886 4.512633 1.509674 -5.341087 23.983270 -1.631308 -5.446470 0.296829 -0.554973 0.618693 3.926064 -3.177388 -15.320480 0.677780 79.518731 36.072683 1.103208 12.914522 7.981375 -3.852740 -4.148877 5.024432 5.460385 3.126254 18.353638 13.231482 -79.101554 -14.757053 9.233298 -8.440611 -6.503399 5.168113 -0.301805 -7.423780 3.564618 -8.614696 23.209970 64.317896 10.458698 -3.405835 -18.992187 9.545401 1.083645 -28.003985 -2.898269 7.878307 -20.610329 0.707929 -1.192724 19.968693 2.165530 6.639378 -6.827987 -8.776821 -0.017684 -1.099283 0.968934
255.173378 81.491686 -251.895797 119.493745 -22.565432 2.153064 2.209913 7.820183 2.082766 1.296577 4.490728 1.508132 1.640485 5.607862 1.902534 1.296575 4.490731 1.508130 -5.282388 24.007440 -1.526009 -5.406160 0.322946 -0.453636 0.714545 3.869842 -3.059892 -15.157152 0.800999 79.405724 35.856281 1.174694 12.754099 7.841477 -3.786082 -3.999953 5.100849 5.406658 3.214680 18.157496 13.554260 -79.133419 -14.743980 8.858782 -8.347377 -6.389725 5.150183 -0.250618 -7.573477 3.719312 -9.097139 24.177081 64.993287 10.849626 -3.188417 -17.565610 9.898506 1.253546 -30.402675 -2.974444 8.032908 -20.262940 0.514592 -1.475550 20.732481 2.143478 6.534272 -6.377631 -8.940349 -0.120059 -1.885394 0.817291
256.043007 81.446089 -252.918888 119.473171 -22.600237 2.389881 2.118372 7.823831 1.680273 1.264619 4.480748 1.503440 1.600405 5.595540 1.896233 1.264619 4.480751 1.503439 -5.232606 24.008626 -1.421647 -5.375066 0.321840 -0.351178 0.774241 3.751827 -2.932092 -14.989623 0.975523 79.255655 35.617174 1.256951 12.598123 7.667293 -3.721074 -3.863459 5.127260 5.257102 3.257500 17.920554 13.916185 -79.112305 -14.745075 8.503335 -8.264431 -6.306157 5.151156 -0.220725 -7.814714 3.736743 -9.717130 25.396686 65.688913 11.598781 -2.953157 -15.931082 10.152506 1.382153 -32.972303 -3.000553 8.192175 -20.007324 0.106147 -2.082630 21.666725 1.998138 6.599122 -5.763356 -8.623769 -0.131161 -2.588036 0.419794
256.884620 81.386139 -253.905928 119.532275 -22.622708 2.527404 2.029753 7.794407 1.383019 1.219366 4.485417 1.493799 1.543700 5.601601 1.883639 1.219366 4.485420 1.493800 -5.211066 23.985337 -1.327196 -5.372474 0.292839 -0.253015 0.792411 3.614266 -2.809477 -14.881839 1.139417 79.117045 35.346349 1.396974 12.475290 7.483942 -3.658255 -3.743796 5.108933 5.055204 3.261008 17.625521 14.239986 -79.080632 -14.713854 8.175549 -8.166837 -6.225050 5.160027 -0.219420 -8.039524 3.689416 -10.264710 26.791444 66.365006 12.610776 -2.673233 -14.149605 10.327879 1.425388 -35.639753 -2.988839 8.358984 -19.900662 -0.293396 -3.056605 22.838264 1.795940 6.854405 -5.068169 -8.249358 -0.070394 -3.207450 0.039466
257.693903 81.317143 -254.865974 119.628592 -22.683667 2.688371 1.945848 7.791402 1.092198 1.168438 4.503096 1.478595 1.479888 5.623963 1.864064 1.168439 4.503098 1.478596 -5.231513 23.949321 -1.248911 -5.412395 0.251022 -0.162920 0.780559 3.509074 -2.705801 -14.892873 1.250826 79.032143 35.043600 1.629782 12.394785 7.312545 -3.598657 -3.649167 5.051590 4.858932 3.230705 17.275829 14.463311 -79.079694 -14.632838 7.910753 -8.027735 -6.141036 5.166166 -0.259750 -8.201109 3.641328 -10.795825 28.245278 67.015777 13.777868 -2.507370 -12.235874 10.371103 1.458615 -38.362902 -2.828020 8.387384 -19.833045 -0.742478 -4.080283 24.152117 1.596639 7.303914 -4.280652 -8.005384 -0.076831 -3.792581 -0.205175
258.468622 81.237523 -255.781402 119.747408 -22.757495 2.841447 1.880917 7.789169 0.855841 1.113309 4.529963 1.458690 1.410802 5.657838 1.838585 1.113309 4.529963 1.458690 -5.292114 23.915048 -1.185593 -5.493404 0.213874 -0.080071 0.764664 3.474220 -2.627971 -15.052775 1.299967 79.020924 34.714541 1.956911 12.338601 7.164101 -3.545127 -3.582571 4.954082 4.697663 3.161792 16.907010 14.573805 -79.117165 -14.513677 7.749862 -7.838908 -6.054658 5.175706 -0.349483 -8.270718 3.591923 -11.232058 29.687541 67.644584 15.042613 -2.510008 -10.251322 10.223739 1.459357 -41.078180 -2.442310 8.130019 -19.799869 -1.101713 -4.772544 25.503913 1.413990 7.731389 -3.462977 -7.876150 -0.121035 -4.331333 -0.328504
259.204243 81.144636 -256.640981 119.875985 -22.821371 2.985758 1.841721 7.767952 0.676560 1.054503 4.561202 1.437802 1.337118 5.697189 1.811838 1.054502 4.561201 1.437802 -5.383423 23.889539 -1.136595 -5.605384 0.189355 -0.005921 0.771123 3.526566 -2.580135 -15.344485 1.304027 79.085435 34.371531 2.342346 12.273848 7.040479 -3.503780 -3.541658 4.811010 4.577978 3.039266 16.557037 14.579753 -79.166503 -14.377760 7.698296 -7.619457 -5.953007 5.209702 -0.486239 -8.252615 3.510478 -11.544896 31.130893 68.264447 16.385925 -2.682814 -8.224296 9.856761 1.377087 -43.759375 -1.789999 7.719401 -19.806582 -1.365020 -5.013351 26.839796 1.275246 7.939520 -2.667582 -7.778754 -0.162266 -4.808532 -0.380536
259.898669 81.035132 -257.436498 119.970372 -22.861707 3.122906 1.846058 7.718133 0.550985 0.999008 4.593692 1.420767 1.267624 5.738073 1.789945 0.999006 4.593690 1.420765 -5.500813 23.868613 -1.108124 -5.741754 0.172088 0.051755 0.814166 3.657746 -2.559017 -15.708728 1.292763 79.208898 34.018179 2.723809 12.164916 6.944869 -3.480460 -3.531284 4.625588 4.488049 2.857824 16.228266 14.508240 -79.193896 -14.257976 7.725930 -7.399850 -5.827854 5.279360 -0.657491 -8.122100 3.358105 -11.705867 32.621718 68.902924 17.806634 -2.973375 -6.173419 9.293015 1.158952 -46.397653 -0.890559 7.436689 -19.836307 -1.577892 -4.921137 28.119006 1.200886 7.872501 -1.950225 -7.648607 -0.178693 -5.181882 -0.395439
260.548173 80.906238 -258.172612 119.984903 -22.875451 3.303085 1.906153 7.646759 0.425167 0.953761 4.628123 1.410823 1.211045 5.781319 1.777050 0.953760 4.628122 1.410821 -5.642132 23.839400 -1.106654 -5.898415 0.146308 0.085480 0.898127 3.834075 -2.563006 -16.060031 1.296300 79.370302 33.642050 3.021157 11.983399 6.875391 -3.475396 -3.549496 4.420785 4.402349 2.630157 15.900647 14.391597 -79.180631 -14.181864 7.804478 -7.207709 -5.671034 5.380521 -0.838264 -7.840248 3.108235 -11.752437 34.181875 69.597665 19.301739 -3.310545 -4.179327 8.599635 0.789425 -48.938130 0.184737 7.478215 -19.840653 -1.828849 -4.634718 29.287615 1.209193 7.563090 -1.335357 -7.452810 -0.160884 -5.424374 -0.394080
261.147179 80.755799 -258.864412 119.909020 -22.852153 3.598056 2.013124 7.561179 0.214915 0.920359 4.663699 1.409828 1.169401 5.825924 1.775497 0.920358 4.663699 1.409827 -5.802906 23.795040 -1.132386 -6.070271 0.103461 0.094039 1.015546 4.021039 -2.600994 -16.317228 1.334202 79.557507 33.225697 3.170008 11.716771 6.822620 -3.486490 -3.586408 4.221509 4.303724 2.381283 15.566144 14.244473 -79.134762 -14.161182 7.924907 -7.055927 -5.483443 5.504904 -1.007253 -7.412203 2.732194 -11.776851 35.839843 70.384874 20.884863 -3.632741 -2.393720 7.873174 0.323855 -51.264492 1.307520 7.834590 -19.794609 -2.209949 -4.271624 30.313164 1.293871 7.127134 -0.802384 -7.188187 -0.118219 -5.552444 -0.401356
261.706506 80.582376 -259.511032 119.776364 -22.780787 3.910554 2.147424 7.468017 -0.007175 0.898761 4.693301 1.417457 1.142608 5.862990 1.784859 0.898761 4.693301 1.417457 -5.977524 23.743116 -1.177246 -6.253188 0.052515 0.084892 1.145529 4.203456 -2.673631 -16.446119 1.406065 79.766812 32.756810 3.166833 11.374820 6.785265 -3.515031 -3.636319 4.039618 4.192767 2.144548 15.223252 14.073431 -79.088024 -14.195567 8.082113 -6.933554 -5.281074 5.646590 -1.158312 -6.905372 2.241144 -11.743381 37.636192 71.250680 22.580425 -3.846485 -1.022903 7.276848 -0.088478 -53.194220 2.195316 8.291566 -19.752003 -2.626004 -3.909437 31.255585 1.438060 6.736976 -0.370137 -6.880502 -0.077111 -5.576241 -0.445349
262.231548 80.386930 -260.124662 119.594455 -22.626578 4.225556 2.308358 7.343951 -0.237335 0.888160 4.709050 1.430915 1.129587 5.882683 1.801608 0.888160 4.709050 1.430915 -6.160506 23.699857 -1.229475 -6.444221 0.012916 0.069500 1.266545 4.374680 -2.765412 -16.462011 1.504294 79.988970 32.226581 3.057079 10.993505 6.765568 -3.553727 -3.695721 3.884005 4.076935 1.945198 14.866255 13.886292 -79.063971 -14.278694 8.256496 -6.823835 -5.081725 5.799716 -1.291707 -6.385515 1.633386 -11.693384 39.609698 72.125146 24.422400 -3.999644 -0.285248 6.913137 -0.230232 -54.490849 2.629401 8.783155 -19.780384 -3.092109 -3.575175 32.161660 1.649397 6.472219 -0.002269 -6.523835 -0.046010 -5.547578 -0.542503
262.769785 80.179538 -260.694518 119.459120 -22.497027 4.248605 2.436334 7.266360 -0.215953 0.887456 4.710623 1.447480 1.128927 5.884610 1.822328 0.887456 4.710623 1.447480 -6.348782 23.678715 -1.278353 -6.642809 0.000869 0.058766 1.358492 4.523688 -2.857710 -16.399469 1.622334 80.205118 31.636078 2.904178 10.619473 6.757410 -3.587848 -3.759640 3.758650 3.955053 1.791123 14.515896 13.692620 -79.055371 -14.403950 8.435663 -6.734236 -4.893362 5.957148 -1.403376 -6.000793 1.056337 -11.422237 41.727253 72.952058 26.391715 -3.998096 -0.251021 6.767347 -0.123839 -55.073040 2.549108 9.253336 -19.888019 -3.347286 -3.360819 33.187174 1.931275 6.291443 0.202231 -6.109275 -0.014453 -5.441410 -0.706414
263.345690 79.974790 -261.243834 119.419626 -22.487184 3.958781 2.480909 7.296702 0.063039 0.895271 4.705545 1.465815 1.138917 5.878182 1.845350 0.895271 4.705544 1.465815 -6.540886 23.683873 -1.318995 -6.848604 0.021396 0.057650 1.406195 4.636772 -2.936510 -16.297004 1.751673 80.394650 30.996589 2.776286 10.290415 6.750510 -3.610051 -3.815103 3.663003 3.815899 1.681719 14.230671 13.505446 -79.038919 -14.574209 8.630827 -6.698494 -4.717538 6.107617 -1.484515 -5.832373 0.605426 -10.953885 43.830324 73.724569 28.343509 -3.789036 -0.878968 6.709948 0.094401 -54.967474 2.136116 9.746152 -19.993001 -3.372110 -3.387254 34.364587 2.220953 6.128846 0.245899 -5.619226 0.022864 -5.270012 -0.926830
263.955105 79.784492 -261.809264 119.446561 -22.598142 3.536029 2.448966 7.421654 0.436580 0.907932 4.701887 1.484699 1.154983 5.873509 1.869126 0.907932 4.701887 1.484699 -6.733757 23.712110 -1.354340 -7.057466 0.070361 0.062266 1.413740 4.705730 -2.994821 -16.186237 1.882788 80.539178 30.316844 2.724376 10.026143 6.736341 -3.616255 -3.844972 3.600813 3.658170 1.607936 14.056597 13.335874 -78.993005 -14.799127 8.841624 -6.750123 -4.555875 6.235895 -1.527358 -5.837456 0.268866 -10.450373 45.892930 74.451025 30.248937 -3.458857 -2.069260 6.690584 0.327175 -54.233840 1.591289 10.181408 -20.022118 -3.269344 -3.643015 35.610711 2.402587 6.039352 0.186222 -5.066761 0.055596 -5.051111 -1.161308
264.597435 79.616735 -262.403135 119.523648 -22.813502 3.037328 2.353918 7.620350 0.862796 0.920863 4.703525 1.503594 1.171410 5.875451 1.892936 0.920863 4.703524 1.503594 -6.927479 23.756591 -1.392166 -7.267554 0.139441 0.064162 1.397225 4.735966 -3.033986 -16.085106 2.004323 80.629717 29.607307 2.771246 9.824623 6.707326 -3.599782 -3.836532 3.573387 3.497006 1.554672 13.992278 13.186979 -78.908086 -15.082568 9.035277 -6.903089 -4.417744 6.322729 -1.527237 -5.959780 0.029328 -9.942379 48.032798 75.129192 32.217814 -3.101185 -3.660113 6.755516 0.504449 -52.814213 1.012100 10.288139 -19.959982 -3.008928 -3.937346 36.879590 2.427856 6.164958 0.022270 -4.490397 0.076062 -4.772426 -1.372737
